<mxfile host="app.diagrams.net" modified="2023-09-13T08:25:52.080Z" agent="Mozilla/5.0 (Macintosh; Intel Mac OS X 10_15_7) AppleWebKit/537.36 (KHTML, like Gecko) Chrome/114.0.0.0 Safari/537.36" etag="UCgaPddbyDEI2HNneVxG" version="21.7.2" type="github">
  <diagram id="C5RBs43oDa-KdzZeNtuy" name="Page-1">
    <mxGraphModel dx="2000" dy="1818" grid="1" gridSize="10" guides="1" tooltips="1" connect="1" arrows="1" fold="1" page="1" pageScale="1" pageWidth="827" pageHeight="1169" math="0" shadow="0">
      <root>
        <mxCell id="WIyWlLk6GJQsqaUBKTNV-0" />
        <mxCell id="WIyWlLk6GJQsqaUBKTNV-1" parent="WIyWlLk6GJQsqaUBKTNV-0" />
        <mxCell id="__dN83xERoE4JQxgRBEe-59" value="&lt;font style=&quot;font-size: 20px;&quot;&gt;Yes&lt;/font&gt;" style="edgeStyle=orthogonalEdgeStyle;rounded=0;orthogonalLoop=1;jettySize=auto;html=1;exitX=0.5;exitY=1;exitDx=0;exitDy=0;entryX=1;entryY=0.5;entryDx=0;entryDy=0;" parent="WIyWlLk6GJQsqaUBKTNV-1" source="__dN83xERoE4JQxgRBEe-22" target="__dN83xERoE4JQxgRBEe-37" edge="1">
          <mxGeometry x="-0.6889" relative="1" as="geometry">
            <Array as="points">
              <mxPoint x="716.13" y="335" />
            </Array>
            <mxPoint as="offset" />
          </mxGeometry>
        </mxCell>
        <mxCell id="Gdn1K2DDrKZkMOO99w1Y-68" style="edgeStyle=orthogonalEdgeStyle;rounded=0;orthogonalLoop=1;jettySize=auto;html=1;exitX=0;exitY=0.5;exitDx=0;exitDy=0;entryX=1;entryY=0.5;entryDx=0;entryDy=0;" parent="WIyWlLk6GJQsqaUBKTNV-1" source="__dN83xERoE4JQxgRBEe-22" target="__dN83xERoE4JQxgRBEe-39" edge="1">
          <mxGeometry relative="1" as="geometry" />
        </mxCell>
        <mxCell id="Gdn1K2DDrKZkMOO99w1Y-69" value="&lt;font style=&quot;font-size: 20px;&quot;&gt;No&lt;/font&gt;" style="edgeLabel;html=1;align=center;verticalAlign=middle;resizable=0;points=[];" parent="Gdn1K2DDrKZkMOO99w1Y-68" vertex="1" connectable="0">
          <mxGeometry x="-0.1774" y="-1" relative="1" as="geometry">
            <mxPoint as="offset" />
          </mxGeometry>
        </mxCell>
        <mxCell id="__dN83xERoE4JQxgRBEe-22" value="제스처 인식에&lt;br&gt;성공했는가?" style="rhombus;whiteSpace=wrap;html=1;" parent="WIyWlLk6GJQsqaUBKTNV-1" vertex="1">
          <mxGeometry x="656.13" y="145" width="120" height="80" as="geometry" />
        </mxCell>
        <mxCell id="__dN83xERoE4JQxgRBEe-64" style="edgeStyle=orthogonalEdgeStyle;rounded=0;orthogonalLoop=1;jettySize=auto;html=1;exitX=1;exitY=0.5;exitDx=0;exitDy=0;entryX=1;entryY=0.5;entryDx=0;entryDy=0;" parent="WIyWlLk6GJQsqaUBKTNV-1" source="__dN83xERoE4JQxgRBEe-23" target="__dN83xERoE4JQxgRBEe-66" edge="1">
          <mxGeometry relative="1" as="geometry">
            <mxPoint x="727.63" y="100" as="targetPoint" />
            <Array as="points">
              <mxPoint x="792.63" y="510" />
              <mxPoint x="792.63" y="55" />
            </Array>
          </mxGeometry>
        </mxCell>
        <mxCell id="__dN83xERoE4JQxgRBEe-65" value="&lt;font style=&quot;font-size: 20px;&quot;&gt;No&lt;/font&gt;" style="edgeLabel;html=1;align=center;verticalAlign=middle;resizable=0;points=[];" parent="__dN83xERoE4JQxgRBEe-64" vertex="1" connectable="0">
          <mxGeometry x="-0.7764" y="-1" relative="1" as="geometry">
            <mxPoint x="-74" y="-1" as="offset" />
          </mxGeometry>
        </mxCell>
        <mxCell id="Gdn1K2DDrKZkMOO99w1Y-61" style="edgeStyle=orthogonalEdgeStyle;rounded=0;orthogonalLoop=1;jettySize=auto;html=1;exitX=0.5;exitY=1;exitDx=0;exitDy=0;entryX=1;entryY=0.5;entryDx=0;entryDy=0;" parent="WIyWlLk6GJQsqaUBKTNV-1" source="__dN83xERoE4JQxgRBEe-23" target="4PQekBKHGVd6vAMe75gU-1" edge="1">
          <mxGeometry relative="1" as="geometry">
            <mxPoint x="181.3800000000001" y="640" as="targetPoint" />
          </mxGeometry>
        </mxCell>
        <mxCell id="Gdn1K2DDrKZkMOO99w1Y-62" value="&lt;font style=&quot;font-size: 20px;&quot;&gt;Yes&lt;/font&gt;" style="edgeLabel;html=1;align=center;verticalAlign=middle;resizable=0;points=[];" parent="Gdn1K2DDrKZkMOO99w1Y-61" vertex="1" connectable="0">
          <mxGeometry x="-0.4008" y="-3" relative="1" as="geometry">
            <mxPoint as="offset" />
          </mxGeometry>
        </mxCell>
        <mxCell id="__dN83xERoE4JQxgRBEe-23" value="본인이&lt;br&gt;맞는가?" style="rhombus;whiteSpace=wrap;html=1;" parent="WIyWlLk6GJQsqaUBKTNV-1" vertex="1">
          <mxGeometry x="162.63" y="470" width="119" height="80" as="geometry" />
        </mxCell>
        <mxCell id="__dN83xERoE4JQxgRBEe-26" style="edgeStyle=orthogonalEdgeStyle;rounded=0;orthogonalLoop=1;jettySize=auto;html=1;exitX=0.5;exitY=1;exitDx=0;exitDy=0;entryX=0.5;entryY=0;entryDx=0;entryDy=0;" parent="WIyWlLk6GJQsqaUBKTNV-1" source="__dN83xERoE4JQxgRBEe-66" target="__dN83xERoE4JQxgRBEe-22" edge="1">
          <mxGeometry relative="1" as="geometry">
            <mxPoint x="682.63" y="115" as="sourcePoint" />
          </mxGeometry>
        </mxCell>
        <mxCell id="__dN83xERoE4JQxgRBEe-60" style="edgeStyle=orthogonalEdgeStyle;rounded=0;orthogonalLoop=1;jettySize=auto;html=1;exitX=0.5;exitY=1;exitDx=0;exitDy=0;entryX=0.5;entryY=0;entryDx=0;entryDy=0;" parent="WIyWlLk6GJQsqaUBKTNV-1" source="__dN83xERoE4JQxgRBEe-37" target="__dN83xERoE4JQxgRBEe-23" edge="1">
          <mxGeometry relative="1" as="geometry" />
        </mxCell>
        <mxCell id="__dN83xERoE4JQxgRBEe-37" value="주문자 촬영 및&lt;br style=&quot;border-color: var(--border-color);&quot;&gt;확인 알림 전송" style="rounded=0;whiteSpace=wrap;html=1;" parent="WIyWlLk6GJQsqaUBKTNV-1" vertex="1">
          <mxGeometry x="501.13" y="310" width="100" height="50" as="geometry" />
        </mxCell>
        <mxCell id="__dN83xERoE4JQxgRBEe-40" style="edgeStyle=orthogonalEdgeStyle;rounded=0;orthogonalLoop=1;jettySize=auto;html=1;exitX=0;exitY=0.5;exitDx=0;exitDy=0;entryX=1;entryY=0.5;entryDx=0;entryDy=0;" parent="WIyWlLk6GJQsqaUBKTNV-1" source="__dN83xERoE4JQxgRBEe-39" target="__dN83xERoE4JQxgRBEe-49" edge="1">
          <mxGeometry relative="1" as="geometry">
            <mxPoint x="486.07957983193285" y="185.02857142857135" as="targetPoint" />
            <Array as="points" />
          </mxGeometry>
        </mxCell>
        <mxCell id="__dN83xERoE4JQxgRBEe-39" value="2차 제스처&amp;nbsp;&lt;br&gt;전송" style="rounded=0;whiteSpace=wrap;html=1;" parent="WIyWlLk6GJQsqaUBKTNV-1" vertex="1">
          <mxGeometry x="531.13" y="163.75" width="70" height="42.5" as="geometry" />
        </mxCell>
        <mxCell id="__dN83xERoE4JQxgRBEe-45" style="edgeStyle=orthogonalEdgeStyle;rounded=0;orthogonalLoop=1;jettySize=auto;html=1;exitX=0.5;exitY=0;exitDx=0;exitDy=0;entryX=0;entryY=0.5;entryDx=0;entryDy=0;" parent="WIyWlLk6GJQsqaUBKTNV-1" source="__dN83xERoE4JQxgRBEe-43" target="__dN83xERoE4JQxgRBEe-66" edge="1">
          <mxGeometry relative="1" as="geometry">
            <mxPoint x="637.63" y="100" as="targetPoint" />
          </mxGeometry>
        </mxCell>
        <mxCell id="Gdn1K2DDrKZkMOO99w1Y-65" value="&lt;font style=&quot;font-size: 20px;&quot;&gt;Yes&lt;/font&gt;" style="edgeLabel;html=1;align=center;verticalAlign=middle;resizable=0;points=[];" parent="__dN83xERoE4JQxgRBEe-45" vertex="1" connectable="0">
          <mxGeometry x="-0.8384" y="-1" relative="1" as="geometry">
            <mxPoint y="-1" as="offset" />
          </mxGeometry>
        </mxCell>
        <mxCell id="__dN83xERoE4JQxgRBEe-52" style="edgeStyle=orthogonalEdgeStyle;rounded=0;orthogonalLoop=1;jettySize=auto;html=1;exitX=0.5;exitY=1;exitDx=0;exitDy=0;entryX=0.5;entryY=0;entryDx=0;entryDy=0;" parent="WIyWlLk6GJQsqaUBKTNV-1" source="__dN83xERoE4JQxgRBEe-43" target="__dN83xERoE4JQxgRBEe-47" edge="1">
          <mxGeometry relative="1" as="geometry" />
        </mxCell>
        <mxCell id="__dN83xERoE4JQxgRBEe-54" value="&lt;font style=&quot;font-size: 20px;&quot;&gt;No&lt;/font&gt;" style="edgeLabel;html=1;align=center;verticalAlign=middle;resizable=0;points=[];" parent="__dN83xERoE4JQxgRBEe-52" vertex="1" connectable="0">
          <mxGeometry x="-0.7276" y="-1" relative="1" as="geometry">
            <mxPoint x="1" y="13" as="offset" />
          </mxGeometry>
        </mxCell>
        <mxCell id="__dN83xERoE4JQxgRBEe-43" value="&#39;인식 재시도&#39;를&lt;br&gt;&amp;nbsp;선택했는가?" style="rhombus;whiteSpace=wrap;html=1;" parent="WIyWlLk6GJQsqaUBKTNV-1" vertex="1">
          <mxGeometry x="52.629999999999995" y="145" width="110" height="80" as="geometry" />
        </mxCell>
        <mxCell id="__dN83xERoE4JQxgRBEe-47" value="GPS 기준 착륙" style="rounded=1;whiteSpace=wrap;html=1;" parent="WIyWlLk6GJQsqaUBKTNV-1" vertex="1">
          <mxGeometry x="62.629999999999995" y="280" width="90" height="40" as="geometry" />
        </mxCell>
        <mxCell id="__dN83xERoE4JQxgRBEe-50" style="edgeStyle=orthogonalEdgeStyle;rounded=0;orthogonalLoop=1;jettySize=auto;html=1;exitX=0.5;exitY=1;exitDx=0;exitDy=0;entryX=0;entryY=0.5;entryDx=0;entryDy=0;" parent="WIyWlLk6GJQsqaUBKTNV-1" source="__dN83xERoE4JQxgRBEe-49" target="__dN83xERoE4JQxgRBEe-37" edge="1">
          <mxGeometry relative="1" as="geometry">
            <Array as="points">
              <mxPoint x="431" y="335" />
            </Array>
          </mxGeometry>
        </mxCell>
        <mxCell id="__dN83xERoE4JQxgRBEe-51" value="&lt;font style=&quot;font-size: 20px;&quot;&gt;Yes&lt;/font&gt;" style="edgeLabel;html=1;align=center;verticalAlign=middle;resizable=0;points=[];" parent="__dN83xERoE4JQxgRBEe-50" vertex="1" connectable="0">
          <mxGeometry x="-0.8486" y="-2" relative="1" as="geometry">
            <mxPoint x="2" y="20" as="offset" />
          </mxGeometry>
        </mxCell>
        <mxCell id="Gdn1K2DDrKZkMOO99w1Y-50" style="edgeStyle=orthogonalEdgeStyle;rounded=0;orthogonalLoop=1;jettySize=auto;html=1;exitX=0;exitY=0.5;exitDx=0;exitDy=0;entryX=1;entryY=0.5;entryDx=0;entryDy=0;" parent="WIyWlLk6GJQsqaUBKTNV-1" source="__dN83xERoE4JQxgRBEe-49" target="Gdn1K2DDrKZkMOO99w1Y-49" edge="1">
          <mxGeometry relative="1" as="geometry" />
        </mxCell>
        <mxCell id="Gdn1K2DDrKZkMOO99w1Y-66" value="&lt;font style=&quot;font-size: 20px;&quot;&gt;No&lt;/font&gt;" style="edgeLabel;html=1;align=center;verticalAlign=middle;resizable=0;points=[];" parent="Gdn1K2DDrKZkMOO99w1Y-50" vertex="1" connectable="0">
          <mxGeometry x="-0.4927" y="-2" relative="1" as="geometry">
            <mxPoint x="-7" y="2" as="offset" />
          </mxGeometry>
        </mxCell>
        <mxCell id="__dN83xERoE4JQxgRBEe-49" value="2차 제스처 인증에&lt;br&gt;성공했는가?" style="rhombus;whiteSpace=wrap;html=1;" parent="WIyWlLk6GJQsqaUBKTNV-1" vertex="1">
          <mxGeometry x="361.13" y="145" width="140" height="80" as="geometry" />
        </mxCell>
        <mxCell id="__dN83xERoE4JQxgRBEe-66" value="제스처 인식" style="rounded=0;whiteSpace=wrap;html=1;" parent="WIyWlLk6GJQsqaUBKTNV-1" vertex="1">
          <mxGeometry x="402.63" y="40" width="80" height="30" as="geometry" />
        </mxCell>
        <mxCell id="Gdn1K2DDrKZkMOO99w1Y-3" style="edgeStyle=orthogonalEdgeStyle;rounded=0;orthogonalLoop=1;jettySize=auto;html=1;exitX=0.5;exitY=1;exitDx=0;exitDy=0;entryX=0.5;entryY=0;entryDx=0;entryDy=0;" parent="WIyWlLk6GJQsqaUBKTNV-1" source="Gdn1K2DDrKZkMOO99w1Y-1" target="__dN83xERoE4JQxgRBEe-66" edge="1">
          <mxGeometry relative="1" as="geometry" />
        </mxCell>
        <mxCell id="Gdn1K2DDrKZkMOO99w1Y-1" value="주문자 GPS 근방 도착 및&lt;br style=&quot;border-color: var(--border-color);&quot;&gt;제스처 인식 시작 알림&amp;nbsp;" style="rounded=0;whiteSpace=wrap;html=1;" parent="WIyWlLk6GJQsqaUBKTNV-1" vertex="1">
          <mxGeometry x="382.63" y="-60" width="120" height="50" as="geometry" />
        </mxCell>
        <mxCell id="Gdn1K2DDrKZkMOO99w1Y-7" style="edgeStyle=orthogonalEdgeStyle;rounded=0;orthogonalLoop=1;jettySize=auto;html=1;exitX=1;exitY=0.5;exitDx=0;exitDy=0;entryX=0.5;entryY=0;entryDx=0;entryDy=0;" parent="WIyWlLk6GJQsqaUBKTNV-1" source="Gdn1K2DDrKZkMOO99w1Y-4" target="Gdn1K2DDrKZkMOO99w1Y-1" edge="1">
          <mxGeometry relative="1" as="geometry" />
        </mxCell>
        <mxCell id="Gdn1K2DDrKZkMOO99w1Y-8" value="&lt;font style=&quot;font-size: 23px;&quot;&gt;Yes&lt;/font&gt;" style="edgeLabel;html=1;align=center;verticalAlign=middle;resizable=0;points=[];" parent="Gdn1K2DDrKZkMOO99w1Y-7" vertex="1" connectable="0">
          <mxGeometry x="-0.3796" y="1" relative="1" as="geometry">
            <mxPoint x="78" y="1" as="offset" />
          </mxGeometry>
        </mxCell>
        <mxCell id="Gdn1K2DDrKZkMOO99w1Y-10" style="edgeStyle=orthogonalEdgeStyle;rounded=0;orthogonalLoop=1;jettySize=auto;html=1;exitX=0;exitY=0.5;exitDx=0;exitDy=0;entryX=0.5;entryY=0;entryDx=0;entryDy=0;" parent="WIyWlLk6GJQsqaUBKTNV-1" source="Gdn1K2DDrKZkMOO99w1Y-4" target="Gdn1K2DDrKZkMOO99w1Y-12" edge="1">
          <mxGeometry relative="1" as="geometry">
            <mxPoint x="-130" y="-90" as="targetPoint" />
            <Array as="points">
              <mxPoint x="-130" y="-120" />
            </Array>
          </mxGeometry>
        </mxCell>
        <mxCell id="Gdn1K2DDrKZkMOO99w1Y-11" value="&lt;font style=&quot;font-size: 23px;&quot;&gt;No&lt;/font&gt;" style="edgeLabel;html=1;align=center;verticalAlign=middle;resizable=0;points=[];" parent="Gdn1K2DDrKZkMOO99w1Y-10" vertex="1" connectable="0">
          <mxGeometry x="-0.3008" y="1" relative="1" as="geometry">
            <mxPoint x="4" y="-1" as="offset" />
          </mxGeometry>
        </mxCell>
        <mxCell id="Gdn1K2DDrKZkMOO99w1Y-4" value="제스처 인식을 &lt;br&gt;선택했는가?" style="rhombus;whiteSpace=wrap;html=1;" parent="WIyWlLk6GJQsqaUBKTNV-1" vertex="1">
          <mxGeometry x="80" y="-160" width="120" height="80" as="geometry" />
        </mxCell>
        <mxCell id="Gdn1K2DDrKZkMOO99w1Y-6" style="edgeStyle=orthogonalEdgeStyle;rounded=0;orthogonalLoop=1;jettySize=auto;html=1;exitX=0.5;exitY=1;exitDx=0;exitDy=0;entryX=0.5;entryY=0;entryDx=0;entryDy=0;" parent="WIyWlLk6GJQsqaUBKTNV-1" source="Gdn1K2DDrKZkMOO99w1Y-5" target="Gdn1K2DDrKZkMOO99w1Y-4" edge="1">
          <mxGeometry relative="1" as="geometry" />
        </mxCell>
        <mxCell id="Gdn1K2DDrKZkMOO99w1Y-5" value="주문자의 인식&amp;nbsp;&lt;br&gt;방법 선택" style="rounded=1;whiteSpace=wrap;html=1;" parent="WIyWlLk6GJQsqaUBKTNV-1" vertex="1">
          <mxGeometry x="80" y="-280" width="120" height="60" as="geometry" />
        </mxCell>
        <mxCell id="Gdn1K2DDrKZkMOO99w1Y-41" style="edgeStyle=orthogonalEdgeStyle;rounded=0;orthogonalLoop=1;jettySize=auto;html=1;exitX=0.5;exitY=1;exitDx=0;exitDy=0;entryX=0.5;entryY=0;entryDx=0;entryDy=0;" parent="WIyWlLk6GJQsqaUBKTNV-1" source="Gdn1K2DDrKZkMOO99w1Y-12" target="Gdn1K2DDrKZkMOO99w1Y-40" edge="1">
          <mxGeometry relative="1" as="geometry" />
        </mxCell>
        <mxCell id="Gdn1K2DDrKZkMOO99w1Y-12" value="주문자 GPS 근방 도착&lt;br&gt;및&lt;br&gt;QR 인식 시작 알림" style="whiteSpace=wrap;html=1;" parent="WIyWlLk6GJQsqaUBKTNV-1" vertex="1">
          <mxGeometry x="-190" y="-60" width="120" height="50" as="geometry" />
        </mxCell>
        <mxCell id="Gdn1K2DDrKZkMOO99w1Y-14" style="edgeStyle=orthogonalEdgeStyle;rounded=0;orthogonalLoop=1;jettySize=auto;html=1;exitX=0;exitY=0.5;exitDx=0;exitDy=0;entryX=1;entryY=0.5;entryDx=0;entryDy=0;" parent="WIyWlLk6GJQsqaUBKTNV-1" target="Gdn1K2DDrKZkMOO99w1Y-52" edge="1">
          <mxGeometry relative="1" as="geometry">
            <mxPoint x="-190.5" y="184.74" as="sourcePoint" />
            <mxPoint x="-260.5" y="184.74" as="targetPoint" />
            <Array as="points" />
          </mxGeometry>
        </mxCell>
        <mxCell id="Gdn1K2DDrKZkMOO99w1Y-15" value="&lt;font style=&quot;font-size: 20px;&quot;&gt;No&lt;/font&gt;" style="edgeLabel;html=1;align=center;verticalAlign=middle;resizable=0;points=[];" parent="Gdn1K2DDrKZkMOO99w1Y-14" vertex="1" connectable="0">
          <mxGeometry x="-0.3908" relative="1" as="geometry">
            <mxPoint x="-9" as="offset" />
          </mxGeometry>
        </mxCell>
        <mxCell id="Gdn1K2DDrKZkMOO99w1Y-16" value="&lt;font style=&quot;font-size: 20px;&quot;&gt;Yes&lt;/font&gt;" style="edgeStyle=orthogonalEdgeStyle;rounded=0;orthogonalLoop=1;jettySize=auto;html=1;exitX=0.5;exitY=1;exitDx=0;exitDy=0;entryX=0.5;entryY=0;entryDx=0;entryDy=0;" parent="WIyWlLk6GJQsqaUBKTNV-1" source="Gdn1K2DDrKZkMOO99w1Y-17" target="Gdn1K2DDrKZkMOO99w1Y-26" edge="1">
          <mxGeometry x="-0.25" relative="1" as="geometry">
            <Array as="points">
              <mxPoint x="-130.5" y="245" />
              <mxPoint x="-130.5" y="245" />
            </Array>
            <mxPoint as="offset" />
          </mxGeometry>
        </mxCell>
        <mxCell id="Gdn1K2DDrKZkMOO99w1Y-17" value="QR 인식에&lt;br&gt;성공했는가?" style="rhombus;whiteSpace=wrap;html=1;" parent="WIyWlLk6GJQsqaUBKTNV-1" vertex="1">
          <mxGeometry x="-190" y="145" width="120" height="80" as="geometry" />
        </mxCell>
        <mxCell id="Gdn1K2DDrKZkMOO99w1Y-22" style="edgeStyle=orthogonalEdgeStyle;rounded=0;orthogonalLoop=1;jettySize=auto;html=1;exitX=0.5;exitY=1;exitDx=0;exitDy=0;entryX=0.5;entryY=0;entryDx=0;entryDy=0;" parent="WIyWlLk6GJQsqaUBKTNV-1" source="Gdn1K2DDrKZkMOO99w1Y-40" target="Gdn1K2DDrKZkMOO99w1Y-17" edge="1">
          <mxGeometry relative="1" as="geometry">
            <mxPoint x="-130.5" y="115" as="sourcePoint" />
          </mxGeometry>
        </mxCell>
        <mxCell id="Gdn1K2DDrKZkMOO99w1Y-48" style="edgeStyle=orthogonalEdgeStyle;rounded=0;orthogonalLoop=1;jettySize=auto;html=1;exitX=0.5;exitY=1;exitDx=0;exitDy=0;entryX=0.5;entryY=0;entryDx=0;entryDy=0;" parent="WIyWlLk6GJQsqaUBKTNV-1" source="Gdn1K2DDrKZkMOO99w1Y-26" target="Gdn1K2DDrKZkMOO99w1Y-46" edge="1">
          <mxGeometry relative="1" as="geometry" />
        </mxCell>
        <mxCell id="Gdn1K2DDrKZkMOO99w1Y-26" value="주문자 촬영 및&lt;br style=&quot;border-color: var(--border-color);&quot;&gt;확인 알림 전송" style="rounded=0;whiteSpace=wrap;html=1;" parent="WIyWlLk6GJQsqaUBKTNV-1" vertex="1">
          <mxGeometry x="-180" y="310" width="100" height="50" as="geometry" />
        </mxCell>
        <mxCell id="Gdn1K2DDrKZkMOO99w1Y-29" style="edgeStyle=orthogonalEdgeStyle;rounded=0;orthogonalLoop=1;jettySize=auto;html=1;exitX=0.5;exitY=0;exitDx=0;exitDy=0;entryX=0;entryY=0.5;entryDx=0;entryDy=0;" parent="WIyWlLk6GJQsqaUBKTNV-1" source="Gdn1K2DDrKZkMOO99w1Y-33" target="Gdn1K2DDrKZkMOO99w1Y-40" edge="1">
          <mxGeometry relative="1" as="geometry">
            <mxPoint x="-175.5" y="100" as="targetPoint" />
          </mxGeometry>
        </mxCell>
        <mxCell id="Gdn1K2DDrKZkMOO99w1Y-30" value="&lt;font style=&quot;font-size: 20px;&quot;&gt;Yes&lt;/font&gt;" style="edgeLabel;html=1;align=center;verticalAlign=middle;resizable=0;points=[];" parent="Gdn1K2DDrKZkMOO99w1Y-29" vertex="1" connectable="0">
          <mxGeometry x="-0.9117" y="3" relative="1" as="geometry">
            <mxPoint x="2" y="-10" as="offset" />
          </mxGeometry>
        </mxCell>
        <mxCell id="Gdn1K2DDrKZkMOO99w1Y-55" style="edgeStyle=orthogonalEdgeStyle;rounded=0;orthogonalLoop=1;jettySize=auto;html=1;exitX=0.5;exitY=1;exitDx=0;exitDy=0;entryX=0.5;entryY=0;entryDx=0;entryDy=0;" parent="WIyWlLk6GJQsqaUBKTNV-1" source="Gdn1K2DDrKZkMOO99w1Y-33" target="Gdn1K2DDrKZkMOO99w1Y-34" edge="1">
          <mxGeometry relative="1" as="geometry" />
        </mxCell>
        <mxCell id="Gdn1K2DDrKZkMOO99w1Y-57" value="&lt;font style=&quot;font-size: 20px;&quot;&gt;No&lt;/font&gt;" style="edgeLabel;html=1;align=center;verticalAlign=middle;resizable=0;points=[];" parent="Gdn1K2DDrKZkMOO99w1Y-55" vertex="1" connectable="0">
          <mxGeometry x="-0.1964" y="1" relative="1" as="geometry">
            <mxPoint as="offset" />
          </mxGeometry>
        </mxCell>
        <mxCell id="Gdn1K2DDrKZkMOO99w1Y-33" value="&#39;인식 재시도&#39;를&lt;br&gt;&amp;nbsp;선택했는가?" style="rhombus;whiteSpace=wrap;html=1;" parent="WIyWlLk6GJQsqaUBKTNV-1" vertex="1">
          <mxGeometry x="-540" y="145" width="110" height="80" as="geometry" />
        </mxCell>
        <mxCell id="Gdn1K2DDrKZkMOO99w1Y-34" value="GPS 기준 착륙" style="rounded=1;whiteSpace=wrap;html=1;" parent="WIyWlLk6GJQsqaUBKTNV-1" vertex="1">
          <mxGeometry x="-530" y="280" width="90" height="40" as="geometry" />
        </mxCell>
        <mxCell id="Gdn1K2DDrKZkMOO99w1Y-40" value="QR 인식" style="rounded=0;whiteSpace=wrap;html=1;" parent="WIyWlLk6GJQsqaUBKTNV-1" vertex="1">
          <mxGeometry x="-169.5" y="40" width="80" height="30" as="geometry" />
        </mxCell>
        <mxCell id="Gdn1K2DDrKZkMOO99w1Y-59" style="edgeStyle=orthogonalEdgeStyle;rounded=0;orthogonalLoop=1;jettySize=auto;html=1;exitX=0.5;exitY=1;exitDx=0;exitDy=0;entryX=0;entryY=0.5;entryDx=0;entryDy=0;" parent="WIyWlLk6GJQsqaUBKTNV-1" source="Gdn1K2DDrKZkMOO99w1Y-46" target="4PQekBKHGVd6vAMe75gU-1" edge="1">
          <mxGeometry relative="1" as="geometry">
            <mxPoint x="99" y="630" as="targetPoint" />
          </mxGeometry>
        </mxCell>
        <mxCell id="Gdn1K2DDrKZkMOO99w1Y-60" value="&lt;font style=&quot;font-size: 20px;&quot;&gt;Yes&lt;/font&gt;" style="edgeLabel;html=1;align=center;verticalAlign=middle;resizable=0;points=[];" parent="Gdn1K2DDrKZkMOO99w1Y-59" vertex="1" connectable="0">
          <mxGeometry x="-0.6797" y="-3" relative="1" as="geometry">
            <mxPoint x="3" y="-14" as="offset" />
          </mxGeometry>
        </mxCell>
        <mxCell id="Gdn1K2DDrKZkMOO99w1Y-63" style="edgeStyle=orthogonalEdgeStyle;rounded=0;orthogonalLoop=1;jettySize=auto;html=1;exitX=1;exitY=0.5;exitDx=0;exitDy=0;entryX=1;entryY=0.5;entryDx=0;entryDy=0;" parent="WIyWlLk6GJQsqaUBKTNV-1" source="Gdn1K2DDrKZkMOO99w1Y-46" target="Gdn1K2DDrKZkMOO99w1Y-40" edge="1">
          <mxGeometry relative="1" as="geometry" />
        </mxCell>
        <mxCell id="Gdn1K2DDrKZkMOO99w1Y-64" value="&lt;font style=&quot;font-size: 20px;&quot;&gt;No&lt;/font&gt;" style="edgeLabel;html=1;align=center;verticalAlign=middle;resizable=0;points=[];" parent="Gdn1K2DDrKZkMOO99w1Y-63" vertex="1" connectable="0">
          <mxGeometry x="-0.7954" y="-3" relative="1" as="geometry">
            <mxPoint as="offset" />
          </mxGeometry>
        </mxCell>
        <mxCell id="Gdn1K2DDrKZkMOO99w1Y-46" value="본인이&lt;br&gt;맞는가?" style="rhombus;whiteSpace=wrap;html=1;" parent="WIyWlLk6GJQsqaUBKTNV-1" vertex="1">
          <mxGeometry x="-189" y="470" width="119" height="80" as="geometry" />
        </mxCell>
        <mxCell id="Gdn1K2DDrKZkMOO99w1Y-51" style="edgeStyle=orthogonalEdgeStyle;rounded=0;orthogonalLoop=1;jettySize=auto;html=1;exitX=0;exitY=0.5;exitDx=0;exitDy=0;entryX=1;entryY=0.5;entryDx=0;entryDy=0;" parent="WIyWlLk6GJQsqaUBKTNV-1" source="Gdn1K2DDrKZkMOO99w1Y-49" target="__dN83xERoE4JQxgRBEe-43" edge="1">
          <mxGeometry relative="1" as="geometry" />
        </mxCell>
        <mxCell id="Gdn1K2DDrKZkMOO99w1Y-49" value="인식 재시도 / GPS&lt;br&gt;기준 착륙 중 선택 알림" style="whiteSpace=wrap;html=1;" parent="WIyWlLk6GJQsqaUBKTNV-1" vertex="1">
          <mxGeometry x="192.63" y="160" width="110" height="50" as="geometry" />
        </mxCell>
        <mxCell id="Gdn1K2DDrKZkMOO99w1Y-53" style="edgeStyle=orthogonalEdgeStyle;rounded=0;orthogonalLoop=1;jettySize=auto;html=1;exitX=0;exitY=0.5;exitDx=0;exitDy=0;entryX=1;entryY=0.5;entryDx=0;entryDy=0;" parent="WIyWlLk6GJQsqaUBKTNV-1" source="Gdn1K2DDrKZkMOO99w1Y-52" target="Gdn1K2DDrKZkMOO99w1Y-33" edge="1">
          <mxGeometry relative="1" as="geometry" />
        </mxCell>
        <mxCell id="Gdn1K2DDrKZkMOO99w1Y-52" value="인식 재시도 / GPS&lt;br&gt;기준 착륙 중 선택 알림" style="whiteSpace=wrap;html=1;" parent="WIyWlLk6GJQsqaUBKTNV-1" vertex="1">
          <mxGeometry x="-396" y="160" width="120" height="50" as="geometry" />
        </mxCell>
        <mxCell id="4PQekBKHGVd6vAMe75gU-3" style="edgeStyle=orthogonalEdgeStyle;rounded=0;orthogonalLoop=1;jettySize=auto;html=1;exitX=0.5;exitY=1;exitDx=0;exitDy=0;entryX=0.5;entryY=0;entryDx=0;entryDy=0;" edge="1" parent="WIyWlLk6GJQsqaUBKTNV-1" source="4PQekBKHGVd6vAMe75gU-1" target="4PQekBKHGVd6vAMe75gU-2">
          <mxGeometry relative="1" as="geometry" />
        </mxCell>
        <mxCell id="4PQekBKHGVd6vAMe75gU-1" value="물건 수령 준비&amp;nbsp;&lt;br&gt;확인 알림 전송" style="rounded=0;whiteSpace=wrap;html=1;" vertex="1" parent="WIyWlLk6GJQsqaUBKTNV-1">
          <mxGeometry x="91.32" y="610" width="97.37" height="50" as="geometry" />
        </mxCell>
        <mxCell id="4PQekBKHGVd6vAMe75gU-5" style="edgeStyle=orthogonalEdgeStyle;rounded=0;orthogonalLoop=1;jettySize=auto;html=1;exitX=0.5;exitY=1;exitDx=0;exitDy=0;entryX=0.5;entryY=0;entryDx=0;entryDy=0;" edge="1" parent="WIyWlLk6GJQsqaUBKTNV-1" source="4PQekBKHGVd6vAMe75gU-2" target="4PQekBKHGVd6vAMe75gU-14">
          <mxGeometry relative="1" as="geometry">
            <mxPoint x="140" y="900" as="targetPoint" />
          </mxGeometry>
        </mxCell>
        <mxCell id="4PQekBKHGVd6vAMe75gU-6" value="&lt;font style=&quot;font-size: 20px;&quot;&gt;Yes&lt;/font&gt;" style="edgeLabel;html=1;align=center;verticalAlign=middle;resizable=0;points=[];" vertex="1" connectable="0" parent="4PQekBKHGVd6vAMe75gU-5">
          <mxGeometry x="-0.2773" relative="1" as="geometry">
            <mxPoint as="offset" />
          </mxGeometry>
        </mxCell>
        <mxCell id="4PQekBKHGVd6vAMe75gU-7" style="edgeStyle=orthogonalEdgeStyle;rounded=0;orthogonalLoop=1;jettySize=auto;html=1;exitX=1;exitY=0.5;exitDx=0;exitDy=0;entryX=0;entryY=0.5;entryDx=0;entryDy=0;" edge="1" parent="WIyWlLk6GJQsqaUBKTNV-1" source="4PQekBKHGVd6vAMe75gU-2" target="4PQekBKHGVd6vAMe75gU-9">
          <mxGeometry relative="1" as="geometry">
            <mxPoint x="300" y="739.8947368421054" as="targetPoint" />
          </mxGeometry>
        </mxCell>
        <mxCell id="4PQekBKHGVd6vAMe75gU-8" value="&lt;font style=&quot;font-size: 20px;&quot;&gt;No&lt;/font&gt;" style="edgeLabel;html=1;align=center;verticalAlign=middle;resizable=0;points=[];" vertex="1" connectable="0" parent="4PQekBKHGVd6vAMe75gU-7">
          <mxGeometry x="-0.1008" relative="1" as="geometry">
            <mxPoint x="2" as="offset" />
          </mxGeometry>
        </mxCell>
        <mxCell id="4PQekBKHGVd6vAMe75gU-2" value="&quot;확인&quot;을 눌렀는가?" style="rhombus;whiteSpace=wrap;html=1;" vertex="1" parent="WIyWlLk6GJQsqaUBKTNV-1">
          <mxGeometry x="80" y="700" width="120" height="80" as="geometry" />
        </mxCell>
        <mxCell id="4PQekBKHGVd6vAMe75gU-13" style="edgeStyle=orthogonalEdgeStyle;rounded=0;orthogonalLoop=1;jettySize=auto;html=1;exitX=0.5;exitY=1;exitDx=0;exitDy=0;entryX=1;entryY=0.5;entryDx=0;entryDy=0;" edge="1" parent="WIyWlLk6GJQsqaUBKTNV-1" source="4PQekBKHGVd6vAMe75gU-9" target="4PQekBKHGVd6vAMe75gU-14">
          <mxGeometry relative="1" as="geometry">
            <mxPoint x="200" y="930" as="targetPoint" />
          </mxGeometry>
        </mxCell>
        <mxCell id="4PQekBKHGVd6vAMe75gU-9" value="특정 시간 이후&lt;br&gt;&amp;nbsp;자동 열림" style="whiteSpace=wrap;html=1;" vertex="1" parent="WIyWlLk6GJQsqaUBKTNV-1">
          <mxGeometry x="295.26" y="720" width="87.37" height="40" as="geometry" />
        </mxCell>
        <mxCell id="4PQekBKHGVd6vAMe75gU-16" style="edgeStyle=orthogonalEdgeStyle;rounded=0;orthogonalLoop=1;jettySize=auto;html=1;exitX=0.5;exitY=1;exitDx=0;exitDy=0;" edge="1" parent="WIyWlLk6GJQsqaUBKTNV-1" source="4PQekBKHGVd6vAMe75gU-14" target="4PQekBKHGVd6vAMe75gU-15">
          <mxGeometry relative="1" as="geometry" />
        </mxCell>
        <mxCell id="4PQekBKHGVd6vAMe75gU-14" value="물품 수령&amp;nbsp; 및&amp;nbsp;&lt;br style=&quot;border-color: var(--border-color);&quot;&gt;물건 수령 확인&lt;br style=&quot;border-color: var(--border-color);&quot;&gt;알림 전송" style="rounded=0;whiteSpace=wrap;html=1;" vertex="1" parent="WIyWlLk6GJQsqaUBKTNV-1">
          <mxGeometry x="80" y="880" width="120" height="60" as="geometry" />
        </mxCell>
        <mxCell id="4PQekBKHGVd6vAMe75gU-15" value="배달 완료 및 귀환" style="rounded=1;whiteSpace=wrap;html=1;" vertex="1" parent="WIyWlLk6GJQsqaUBKTNV-1">
          <mxGeometry x="80" y="990" width="120" height="60" as="geometry" />
        </mxCell>
      </root>
    </mxGraphModel>
  </diagram>
</mxfile>
